<svg width="29" height="29" viewBox="0 0 29 29" fill="none" xmlns="http://www.w3.org/2000/svg">
<path d="M14.5001 2.41666C7.83008 2.41666 2.41675 7.82999 2.41675 14.5C2.41675 21.17 7.83008 26.5833 14.5001 26.5833C21.1701 26.5833 26.5834 21.17 26.5834 14.5C26.5834 7.82999 21.1701 2.41666 14.5001 2.41666ZM14.5001 6.04166C16.5059 6.04166 18.1251 7.66082 18.1251 9.66666C18.1251 11.6725 16.5059 13.2917 14.5001 13.2917C12.4942 13.2917 10.8751 11.6725 10.8751 9.66666C10.8751 7.66082 12.4942 6.04166 14.5001 6.04166ZM14.5001 23.2C11.4792 23.2 8.80883 21.6533 7.25008 19.3092C7.28633 16.9046 12.0834 15.5875 14.5001 15.5875C16.9047 15.5875 21.7138 16.9046 21.7501 19.3092C20.1913 21.6533 17.5209 23.2 14.5001 23.2Z" fill="#454545"/>
</svg>
