<svg width="80" height="80" viewBox="0 0 80 80" fill="none" xmlns="http://www.w3.org/2000/svg">
<path d="M39.9999 4.4444C32.9677 4.4444 26.0934 6.52969 20.2463 10.4366C14.3992 14.3435 9.84197 19.8965 7.15086 26.3934C4.45974 32.8904 3.75562 40.0394 5.12754 46.9365C6.49946 53.8336 9.8858 60.169 14.8583 65.1415C19.8309 70.1141 26.1663 73.5004 33.0634 74.8723C39.9605 76.2443 47.1095 75.5401 53.6064 72.849C60.1034 70.1579 65.6564 65.6007 69.5633 59.7536C73.4702 53.9065 75.5555 47.0322 75.5555 40C75.5555 30.57 71.8094 21.5263 65.1415 14.8584C58.4735 8.19042 49.4298 4.4444 39.9999 4.4444ZM63.2221 28.0666L34.0221 57.2444L16.7777 40C16.1883 39.4106 15.8572 38.6112 15.8572 37.7777C15.8572 36.9442 16.1883 36.1449 16.7777 35.5555C17.3671 34.9661 18.1664 34.635 18.9999 34.635C19.8334 34.635 20.6328 34.9661 21.2221 35.5555L34.0666 48.4L58.8221 23.6666C59.114 23.3748 59.4604 23.1433 59.8417 22.9854C60.223 22.8274 60.6316 22.7461 61.0444 22.7461C61.4571 22.7461 61.8657 22.8274 62.247 22.9854C62.6283 23.1433 62.9748 23.3748 63.2666 23.6666C63.5584 23.9585 63.7899 24.3049 63.9478 24.6862C64.1058 25.0675 64.1871 25.4761 64.1871 25.8888C64.1871 26.3016 64.1058 26.7102 63.9478 27.0915C63.7899 27.4728 63.5584 27.8192 63.2666 28.1111L63.2221 28.0666Z" fill="#8BC86F"/>
</svg>
