<svg width="14" height="14" viewBox="0 0 14 14" fill="none" xmlns="http://www.w3.org/2000/svg">
<path d="M5.88008 6.33499C5.90925 6.14249 5.97341 5.97332 6.05508 5.82749C6.13675 5.68166 6.25342 5.55916 6.39925 5.46582C6.53925 5.37832 6.71425 5.33749 6.93008 5.33166C7.06425 5.33749 7.18675 5.36082 7.29758 5.40749C7.41425 5.45999 7.51925 5.52999 7.60091 5.61749C7.68258 5.70499 7.74675 5.80999 7.79925 5.92666C7.85175 6.04332 7.87508 6.17166 7.88092 6.29999H8.92508C8.91342 6.02582 8.86092 5.77499 8.76175 5.54749C8.66258 5.31999 8.52842 5.12166 8.35342 4.95832C8.17841 4.79499 7.96842 4.66666 7.72341 4.57332C7.47842 4.47999 7.21008 4.43916 6.91258 4.43916C6.53342 4.43916 6.20091 4.50332 5.92091 4.63749C5.64091 4.77166 5.40758 4.94666 5.22091 5.17416C5.03425 5.40166 4.89425 5.66416 4.80675 5.96749C4.71925 6.27082 4.66675 6.58582 4.66675 6.92416V7.08166C4.66675 7.41999 4.71341 7.73499 4.80091 8.03832C4.88841 8.34166 5.02841 8.60416 5.21508 8.82582C5.40175 9.04749 5.63508 9.22832 5.91508 9.35666C6.19508 9.48499 6.52758 9.55499 6.90675 9.55499C7.18092 9.55499 7.43758 9.50832 7.67675 9.42082C7.91592 9.33332 8.12592 9.21082 8.30675 9.05332C8.48758 8.89582 8.63341 8.71499 8.73841 8.50499C8.84341 8.29499 8.90758 8.07332 8.91341 7.83416H7.86925C7.86342 7.95666 7.83425 8.06749 7.78175 8.17249C7.72925 8.27749 7.65925 8.36499 7.57175 8.44082C7.48425 8.51666 7.38508 8.57499 7.26841 8.61582C7.15758 8.65666 7.04092 8.66832 6.91842 8.67416C6.70842 8.66832 6.53342 8.62749 6.39925 8.53999C6.25342 8.44666 6.13675 8.32416 6.05508 8.17832C5.97341 8.03249 5.90925 7.85749 5.88008 7.66499C5.85091 7.47249 5.83342 7.27416 5.83342 7.08166V6.92416C5.83342 6.71999 5.85091 6.52749 5.88008 6.33499ZM7.00008 1.16666C3.78008 1.16666 1.16675 3.77999 1.16675 6.99999C1.16675 10.22 3.78008 12.8333 7.00008 12.8333C10.2201 12.8333 12.8334 10.22 12.8334 6.99999C12.8334 3.77999 10.2201 1.16666 7.00008 1.16666ZM7.00008 11.6667C4.42758 11.6667 2.33341 9.57249 2.33341 6.99999C2.33341 4.42749 4.42758 2.33332 7.00008 2.33332C9.57258 2.33332 11.6667 4.42749 11.6667 6.99999C11.6667 9.57249 9.57258 11.6667 7.00008 11.6667Z" fill="#F5CB36"/>
</svg>
