<svg width="29" height="29" viewBox="0 0 13 26" fill="none" xmlns="http://www.w3.org/2000/svg">
<g clip-path="url(#clip0)">
<path d="M9.44458 11.8523L4.56958 10.2477C4.00535 10.0648 3.61264 9.4707 3.61264 8.81055C3.61264 7.98281 4.20847 7.3125 4.94424 7.3125H7.93695C8.48764 7.3125 9.02931 7.50039 9.4807 7.8457C9.75604 8.05391 10.1262 8.00313 10.3609 7.74414L11.9317 6.01758C12.2522 5.66719 12.2071 5.0832 11.8505 4.77344C10.7446 3.79844 9.36333 3.25508 7.94597 3.25V0.8125C7.94597 0.365625 7.62097 0 7.22375 0H5.77931C5.38208 0 5.05709 0.365625 5.05709 0.8125V3.25H4.94424C2.06889 3.25 -0.242221 6.02773 0.0240988 9.32344C0.213682 11.6645 1.80257 13.5688 3.80674 14.2289L8.43347 15.7523C8.99771 15.9402 9.39042 16.5293 9.39042 17.1895C9.39042 18.0172 8.79458 18.6875 8.05882 18.6875H5.06611C4.51542 18.6875 3.97375 18.4996 3.52236 18.1543C3.24702 17.9461 2.87688 17.9969 2.64215 18.2559L1.07132 19.9824C0.750835 20.3328 0.795974 20.9168 1.15257 21.2266C2.25847 22.2016 3.63972 22.7449 5.05709 22.75V25.1875C5.05709 25.6344 5.38208 26 5.77931 26H7.22375C7.62097 26 7.94597 25.6344 7.94597 25.1875V22.7398C10.0494 22.6941 12.022 21.2875 12.7172 19.048C13.6876 15.9199 12.0581 12.7105 9.44458 11.8523Z" fill="#454545"/>
</g>
<defs>
<clipPath id="clip0">
<rect width="13" height="26" fill="white"/>
</clipPath>
</defs>
</svg>
