<svg width="20" height="20" viewBox="0 0 20 20" fill="none" xmlns="http://www.w3.org/2000/svg">
<path d="M10.0002 1.11108C8.24216 1.11108 6.52359 1.63241 5.06182 2.60913C3.60005 3.58586 2.46074 4.97411 1.78796 6.59834C1.11518 8.22258 0.93915 10.0098 1.28213 11.7341C1.62511 13.4584 2.47169 15.0422 3.71483 16.2854C4.95796 17.5285 6.54181 18.3751 8.26608 18.7181C9.99036 19.0611 11.7776 18.885 13.4019 18.2122C15.0261 17.5395 16.4143 16.4001 17.3911 14.9384C18.3678 13.4766 18.8891 11.758 18.8891 9.99998C18.8891 7.64249 17.9526 5.38157 16.2856 3.71458C14.6186 2.04759 12.3577 1.11108 10.0002 1.11108ZM15.8058 7.01664L8.50578 14.3111L4.19467 9.99998C4.04732 9.85263 3.96455 9.65279 3.96455 9.44442C3.96455 9.23605 4.04732 9.03621 4.19467 8.88886C4.34201 8.74152 4.54185 8.65875 4.75022 8.65875C4.95859 8.65875 5.15843 8.74152 5.30578 8.88886L8.51689 12.1L14.7058 5.91664C14.7787 5.84368 14.8653 5.78581 14.9607 5.74633C15.056 5.70684 15.1582 5.68652 15.2613 5.68652C15.3645 5.68652 15.4667 5.70684 15.562 5.74633C15.6573 5.78581 15.7439 5.84368 15.8169 5.91664C15.8898 5.9896 15.9477 6.07621 15.9872 6.17153C16.0267 6.26685 16.047 6.36902 16.047 6.4722C16.047 6.57537 16.0267 6.67754 15.9872 6.77286C15.9477 6.86818 15.8898 6.9548 15.8169 7.02775L15.8058 7.01664Z" fill="#53C41E"/>
</svg>
